<?xml version="1.0" encoding="utf-8"?>
<!-- Generator: Adobe Illustrator 16.0.0, SVG Export Plug-In . SVG Version: 6.00 Build 0)  -->
<!DOCTYPE svg PUBLIC "-//W3C//DTD SVG 1.1//EN" "http://www.w3.org/Graphics/SVG/1.1/DTD/svg11.dtd">
<svg version="1.1" id="Layer_1" xmlns="http://www.w3.org/2000/svg" xmlns:xlink="http://www.w3.org/1999/xlink" x="0px" y="0px"
	 width="1648.177px" height="376.386px" viewBox="0 0 1648.177 376.386" enable-background="new 0 0 1648.177 376.386"
	 xml:space="preserve">
<g>
	<path fill="#58595B" d="M765.908,312.972c4.91,0,8.58,1.909,11.01,5.729v-7.515c0-1.982-0.049-3.199-0.148-3.646
		c-0.248-1.536-0.943-2.306-2.083-2.306c-0.397,0-0.956,0.074-1.674,0.223c-0.72,0.149-1.278,0.224-1.674,0.224
		c-1.836,0-2.753-0.793-2.753-2.381c0-1.637,1.239-2.455,3.72-2.455c0.396,0,1.116,0.05,2.157,0.148
		c1.588,0.149,2.406,0.224,2.455,0.224c0.447,0,1.091-0.062,1.935-0.187c0.843-0.123,1.488-0.186,1.935-0.186
		c1.388,0,2.083,0.994,2.083,2.98v0.819c-0.05,0.15-0.101,1.467-0.149,3.95c0,0.298-0.074,2.211-0.223,5.738
		c-0.1,2.483-0.148,4.371-0.148,5.663v7.303v12.443c0.05,3.279,0.201,5.316,0.454,6.111s0.858,1.191,1.818,1.191
		c0.655,0,1.161-0.049,1.516-0.148c0.808-0.099,1.364-0.148,1.667-0.148c1.868,0,2.803,0.818,2.803,2.455
		c0,1.687-1.115,2.529-3.348,2.529c-0.496,0-1.254-0.063-2.27-0.187c-1.018-0.123-1.773-0.186-2.27-0.186
		c-0.148,0-0.719,0.05-1.711,0.148c-0.595,0.149-1.115,0.224-1.562,0.224c-1.338,0-2.008-0.893-2.008-2.679v-0.372v-1.265
		c-2.623,3.522-6.432,5.282-11.428,5.282c-5.045,0-9.103-1.834-12.169-5.505c-3.067-3.67-4.601-8.481-4.601-14.434
		c0-6,1.514-10.799,4.539-14.396C756.806,314.77,760.849,312.972,765.908,312.972z M776.619,339.233
		c0.199-1.637,0.299-3.744,0.299-6.323c0-3.322-0.125-5.58-0.374-6.771c-0.45-2.479-1.524-4.414-3.222-5.803
		c-1.998-1.637-4.295-2.455-6.892-2.455c-3.497,0-6.23,1.314-8.203,3.942c-1.973,2.63-2.958,6.226-2.958,10.788
		c0,4.713,1.022,8.42,3.07,11.122c2.047,2.704,4.844,4.055,8.391,4.055c2.697,0,4.944-0.781,6.742-2.344
		C775.27,343.883,776.318,341.812,776.619,339.233z"/>
	<path fill="#58595B" d="M827.656,329.562c0,1.886-0.124,3.039-0.371,3.46c-0.249,0.422-0.968,0.632-2.158,0.632h-23.658
		c-0.645,0-1.066,0.088-1.265,0.261c-0.198,0.175-0.298,0.459-0.298,0.855c0,3.72,1.116,6.82,3.348,9.3
		c2.232,2.48,5.01,3.72,8.333,3.72c2.183,0,4.178-0.595,5.989-1.785c1.81-1.19,2.987-2.703,3.533-4.538l0.67-2.158
		c0.347-1.19,1.165-1.785,2.455-1.785c1.834,0,2.753,0.942,2.753,2.827c0,3.225-1.637,6.089-4.91,8.593
		c-3.274,2.504-6.993,3.757-11.159,3.757c-5.209,0-9.35-1.748-12.425-5.245c-3.075-3.496-4.612-8.195-4.612-14.098
		c0-6.051,1.637-10.961,4.91-14.73s7.538-5.654,12.796-5.654c4.661,0,8.506,1.562,11.532,4.687
		C826.143,320.783,827.656,324.752,827.656,329.562z M800.65,327.628c0,0.694,0.545,1.041,1.637,1.041h17.781
		c1.041,0,1.562-0.347,1.562-1.041c0-2.629-0.993-4.91-2.977-6.845c-1.984-1.935-4.314-2.901-6.993-2.901
		c-2.778,0-5.308,1.004-7.589,3.013S800.65,325.148,800.65,327.628z"/>
	<path fill="#58595B" d="M844.247,322.963l8.704,23.338l8.407-23.212c0.495-1.388,0.743-2.28,0.743-2.678
		c0-1.091-0.52-1.637-1.562-1.637c-0.396,0-0.979,0.074-1.748,0.223c-0.77,0.149-1.352,0.224-1.748,0.224
		c-1.637,0-2.455-0.806-2.455-2.419c0-1.71,1.19-2.565,3.571-2.565c0.099,0,0.298,0,0.595,0c0.248,0.036,0.447,0.054,0.596,0.054
		l3.125,0.318c0.693,0.198,1.413,0.297,2.157,0.297c0.991,0,2.628-0.139,4.91-0.418c1.388-0.168,2.38-0.251,2.976-0.251
		c2.132,0,3.199,0.831,3.199,2.492c0,1.662-0.868,2.492-2.604,2.492c-0.547,0-0.943-0.06-1.191-0.179
		c-0.743-0.178-1.264-0.268-1.562-0.268c-0.894,0-1.812,1.193-2.753,3.579l-10.49,26.842c-0.893,2.286-2.406,3.43-4.538,3.43
		c-2.034,0-3.497-1.146-4.39-3.438l-10.713-27.648c-0.695-1.843-1.514-2.765-2.455-2.765c-0.348,0-0.868,0.074-1.562,0.223
		c-0.695,0.149-1.216,0.224-1.562,0.224c-1.637,0-2.455-0.769-2.455-2.307c0-1.785,1.141-2.678,3.423-2.678
		c0.396,0,0.694,0.025,0.893,0.074l3.124,0.396c1.043,0.133,2.084,0.198,3.125,0.198c0.844,0,2.084-0.095,3.721-0.287l2.455-0.287
		c0.247-0.062,0.595-0.095,1.041-0.095c2.182,0,3.273,0.856,3.273,2.567c0,1.611-0.943,2.417-2.827,2.417
		c-0.595,0-1.017-0.029-1.265-0.09c-0.943-0.236-1.537-0.356-1.785-0.356c-0.795,0-1.19,0.35-1.19,1.047
		c0,0.35,0.099,0.848,0.298,1.496L844.247,322.963z"/>
	<path fill="#58595B" d="M885.091,327.553c-1.29,0-2.381-0.458-3.273-1.376c-0.894-0.917-1.339-2.021-1.339-3.311
		c0-1.289,0.445-2.393,1.339-3.311c0.893-0.917,1.983-1.377,3.273-1.377c1.289,0,2.38,0.46,3.273,1.377
		c0.893,0.918,1.339,2.021,1.339,3.311c0,1.29-0.446,2.394-1.339,3.311C887.471,327.095,886.38,327.553,885.091,327.553z
		 M885.091,352.699c-1.29,0-2.381-0.459-3.273-1.376c-0.894-0.917-1.339-2.021-1.339-3.311c0-1.289,0.445-2.393,1.339-3.312
		c0.893-0.917,1.983-1.376,3.273-1.376c1.289,0,2.38,0.459,3.273,1.376c0.893,0.919,1.339,2.022,1.339,3.312
		c0,1.29-0.446,2.394-1.339,3.311C887.471,352.24,886.38,352.699,885.091,352.699z"/>
	<path fill="#58595B" d="M919.834,326.884c0-1.983,1.238-3.125,3.72-3.423c-0.249-1.735-1.079-3.099-2.493-4.092
		c-1.413-0.991-3.235-1.487-5.467-1.487c-3.423,0-6.176,1.364-8.259,4.092c-2.083,2.729-3.124,6.349-3.124,10.861
		c0,4.663,0.979,8.321,2.938,10.974c1.959,2.654,4.675,3.98,8.146,3.98c2.183,0,4.08-0.619,5.691-1.86
		c1.611-1.238,2.716-2.95,3.311-5.133c0.496-1.735,0.793-2.728,0.894-2.976c0.545-0.992,1.339-1.488,2.38-1.488
		c0.844,0,1.537,0.273,2.084,0.818c0.545,0.546,0.818,1.24,0.818,2.083c0,1.24-0.398,2.729-1.19,4.464
		c-0.794,1.736-1.737,3.175-2.827,4.315c-2.928,3.124-6.721,4.687-11.383,4.687c-5.059,0-9.139-1.785-12.238-5.356
		s-4.65-8.258-4.65-14.062c0-6.148,1.6-11.072,4.799-14.768c3.199-3.694,7.451-5.542,12.76-5.542c3.967,0,7.266,1.078,9.895,3.236
		c2.629,2.157,3.943,4.898,3.943,8.221c0,1.835-0.51,3.348-1.525,4.538c-1.018,1.19-2.319,1.785-3.906,1.785
		c-1.24,0-2.27-0.372-3.088-1.115C920.242,328.893,919.834,327.976,919.834,326.884z"/>
	<path fill="#58595B" d="M953.237,352.699c-5.208,0-9.374-1.797-12.499-5.394c-3.124-3.596-4.687-8.419-4.687-14.471
		c0-6.05,1.573-10.873,4.724-14.47c3.149-3.596,7.377-5.394,12.686-5.394c5.405,0,9.672,1.761,12.796,5.282
		s4.687,8.308,4.687,14.358c0,6.052-1.611,10.912-4.836,14.582C962.883,350.865,958.594,352.699,953.237,352.699z M953.609,317.882
		c-3.473,0-6.201,1.216-8.184,3.646c-1.984,2.431-3.076,5.877-3.273,10.341v0.967c0,4.663,0.979,8.321,2.938,10.974
		c1.959,2.654,4.698,3.98,8.222,3.98c3.619,0,6.459-1.326,8.518-3.98c2.058-2.652,3.088-6.335,3.088-11.048
		C964.918,322.842,961.148,317.882,953.609,317.882z"/>
	<path fill="#58595B" d="M988.129,316.507v2.119c2.977-3.77,6.943-5.654,11.903-5.654c2.679,0,5.208,0.682,7.589,2.046
		s3.992,3.062,4.836,5.096c0.693,1.687,1.041,3.895,1.041,6.621v14.136c0,2.133,0.024,3.397,0.074,3.794
		c0.248,1.688,0.918,2.53,2.01,2.53c0.445,0,1.028-0.062,1.748-0.187c0.719-0.123,1.227-0.186,1.525-0.186
		c0.644,0,1.201,0.223,1.674,0.669c0.471,0.446,0.706,0.993,0.706,1.637c0,0.744-0.298,1.365-0.893,1.86s-1.315,0.744-2.157,0.744
		c-0.695,0-1.836-0.101-3.422-0.298c-1.588-0.197-3.076-0.298-4.465-0.298c-1.29,0-2.355,0.05-3.199,0.149
		c-2.48,0.297-3.794,0.446-3.942,0.446c-1.984,0-2.976-0.867-2.976-2.604c0-1.536,0.858-2.306,2.579-2.306
		c0.404,0,0.858,0.05,1.364,0.148c0.961,0.199,1.567,0.298,1.82,0.298c1.215,0,1.871-1.363,1.973-4.092v-3.795v-4.538v-5.654
		c0-2.628-0.124-4.438-0.37-5.431c-0.445-1.884-1.409-3.348-2.89-4.39c-1.631-1.14-3.484-1.711-5.559-1.711
		c-3.953,0-6.794,1.414-8.522,4.241c-1.187,1.934-1.778,5.233-1.778,9.895v9.895c0,2.184,0.148,3.671,0.446,4.464
		c0.298,0.794,0.843,1.19,1.637,1.19c0.396,0,0.941-0.086,1.637-0.261c0.694-0.173,1.265-0.26,1.711-0.26
		c1.536,0,2.306,0.831,2.306,2.492c0,1.612-0.992,2.418-2.975,2.418c-0.398,0-1.688-0.149-3.869-0.446
		c-1.092-0.149-2.307-0.224-3.646-0.224c-1.042,0-2.431,0.1-4.167,0.298c-2.183,0.247-3.422,0.372-3.719,0.372
		c-2.084,0-3.125-0.843-3.125-2.529c0-1.587,0.808-2.381,2.425-2.381c0.253,0,0.72,0.074,1.401,0.223
		c0.682,0.149,1.352,0.224,2.008,0.224c1.516,0,2.299-1.438,2.35-4.315v-8.258v-9.002v-2.604c-0.102-1.686-0.316-2.838-0.645-3.459
		c-0.328-0.619-0.896-0.93-1.705-0.93c-0.354,0-0.871,0.062-1.553,0.186c-0.683,0.125-1.199,0.187-1.553,0.187
		c-1.819,0-2.729-0.793-2.729-2.381c0-1.637,1.115-2.455,3.348-2.455c0.298,0,0.545,0.025,0.744,0.074l2.752,0.298
		c0.793,0,1.488-0.062,2.084-0.187c1.289-0.123,1.959-0.186,2.008-0.186C987.409,314.236,988.129,314.993,988.129,316.507z"/>
	<path fill="#58595B" d="M1041.769,312.972c1.289,0,2.753,0.198,4.39,0.595c0.247-4.86,3.074-7.291,8.48-7.291
		c2.281,0,4.191,0.596,5.729,1.786s2.307,2.703,2.307,4.538c0,1.19-0.385,2.207-1.152,3.05c-0.77,0.844-1.675,1.265-2.717,1.265
		c-0.793,0-1.487-0.271-2.082-0.818c-0.596-0.545-0.893-1.19-0.893-1.934c0-0.793,0.545-1.611,1.637-2.455
		c-0.795-0.992-1.812-1.488-3.051-1.488c-2.629,0-3.969,1.637-4.018,4.91c3.769,2.529,5.654,5.928,5.654,10.192
		c0,3.422-1.294,6.274-3.881,8.556c-2.586,2.282-5.818,3.422-9.697,3.422c-2.736,0-5.571-0.644-8.505-1.934
		c-0.796-0.347-1.468-0.521-2.015-0.521c-0.696,0-1.318,0.311-1.865,0.931s-0.82,1.352-0.82,2.194c0,2.579,2.609,3.868,7.83,3.868
		h0.447c0.398,0,0.846,0,1.344,0c0.496,0,0.795,0,0.895,0c4.723,0,8.551,0.445,11.485,1.335c2.733,0.842,4.896,2.151,6.487,3.932
		c1.59,1.779,2.387,3.781,2.387,6.006c0,3.608-1.674,6.464-5.021,8.565c-3.348,2.101-7.875,3.151-13.578,3.151
		s-10.181-0.993-13.428-2.976c-3.25-1.984-4.873-4.713-4.873-8.185c0-4.017,2.256-6.868,6.77-8.556
		c-4.067-1.586-6.101-3.967-6.101-7.142c0-3.471,2.033-5.852,6.101-7.143c-1.291-1.735-1.934-3.769-1.934-6.1
		c0-3.373,1.301-6.176,3.905-8.407C1034.589,314.087,1037.85,312.972,1041.769,312.972z M1042.066,346.748
		c-3.969,0-7.094,0.595-9.375,1.785s-3.422,2.803-3.422,4.836s1.116,3.633,3.348,4.799c2.232,1.164,5.232,1.748,9.002,1.748
		c3.968,0,7.105-0.596,9.412-1.786c2.306-1.189,3.459-2.778,3.459-4.761c0-2.083-1.092-3.707-3.273-4.873
		C1049.033,347.331,1045.983,346.748,1042.066,346.748z M1041.992,317.882c-2.184,0-4.043,0.645-5.58,1.934
		c-1.538,1.291-2.381,2.902-2.529,4.836v0.446c0,2.184,0.744,3.943,2.231,5.282c1.487,1.34,3.423,2.009,5.803,2.009
		c2.479,0,4.501-0.669,6.063-2.009c1.562-1.339,2.344-3.05,2.344-5.133c0-2.132-0.794-3.894-2.381-5.282
		C1046.355,318.577,1044.372,317.882,1041.992,317.882z"/>
	<path fill="#58595B" d="M1077.85,316.357v2.045c2.578-3.62,6.026-5.431,10.342-5.431c3.471,0,6.286,0.979,8.443,2.938
		c2.158,1.96,3.236,4.477,3.236,7.551c0,2.184-0.547,3.956-1.637,5.319c-1.092,1.365-2.529,2.046-4.314,2.046
		c-1.143,0-2.109-0.346-2.902-1.041c-0.793-0.694-1.189-1.537-1.189-2.529c0-0.793,0.297-1.5,0.893-2.12
		c0.595-0.62,1.289-0.931,2.083-0.931c0.148,0,0.471,0.074,0.967,0.224c0.298-0.596,0.446-1.141,0.446-1.637
		c0-1.438-0.633-2.653-1.896-3.646c-1.266-0.992-2.84-1.488-4.725-1.488c-3.869,0-6.448,1.737-7.737,5.208
		c-0.794,2.133-1.19,5.356-1.19,9.672v4.91c0,3.323,0.024,5.183,0.074,5.579c0.248,2.827,1.016,4.241,2.307,4.241
		c0.645,0,1.313-0.085,2.009-0.255c0.545-0.128,1.017-0.191,1.413-0.191c1.587,0,2.381,0.782,2.381,2.345
		c0,1.711-1.014,2.565-3.039,2.565h-0.297c-0.742,0-1.867-0.088-3.375-0.261s-2.631-0.261-3.373-0.261
		c-1.978,0-3.533,0.051-4.671,0.149l-4.152,0.372c-2.027,0-3.04-0.867-3.04-2.604c0-1.536,0.951-2.306,2.854-2.306
		c0.5,0,0.875,0.025,1.126,0.074l1.126,0.223c0.5,0.101,0.852,0.149,1.051,0.149c1.252,0,1.928-1.141,2.027-3.423v-3.794
		l-0.223-16.888c-0.148-2.926-0.893-4.39-2.232-4.39c-0.396,0-0.942,0.074-1.637,0.223c-0.695,0.149-1.24,0.224-1.637,0.224
		c-1.637,0-2.455-0.793-2.455-2.381c0-1.735,1.066-2.604,3.199-2.604c0.496,0,1.239,0.062,2.232,0.186
		c0.991,0.125,1.735,0.187,2.231,0.187c0.396,0,1.042-0.062,1.935-0.187c0.396-0.123,0.867-0.186,1.414-0.186
		C1077.205,314.236,1077.85,314.944,1077.85,316.357z"/>
	<path fill="#58595B" d="M1136.921,329.562c0,1.886-0.124,3.039-0.372,3.46c-0.248,0.422-0.967,0.632-2.158,0.632h-23.658
		c-0.645,0-1.066,0.088-1.264,0.261c-0.199,0.175-0.298,0.459-0.298,0.855c0,3.72,1.116,6.82,3.348,9.3
		c2.231,2.48,5.009,3.72,8.333,3.72c2.182,0,4.178-0.595,5.988-1.785s2.988-2.703,3.534-4.538l0.669-2.158
		c0.348-1.19,1.166-1.785,2.455-1.785c1.835,0,2.754,0.942,2.754,2.827c0,3.225-1.637,6.089-4.91,8.593
		c-3.274,2.504-6.994,3.757-11.16,3.757c-5.208,0-9.35-1.748-12.424-5.245c-3.076-3.496-4.613-8.195-4.613-14.098
		c0-6.051,1.637-10.961,4.91-14.73s7.539-5.654,12.797-5.654c4.661,0,8.506,1.562,11.531,4.687
		C1135.407,320.783,1136.921,324.752,1136.921,329.562z M1109.914,327.628c0,0.694,0.546,1.041,1.637,1.041h17.781
		c1.042,0,1.562-0.347,1.562-1.041c0-2.629-0.992-4.91-2.976-6.845c-1.984-1.935-4.315-2.901-6.993-2.901
		c-2.778,0-5.309,1.004-7.589,3.013C1111.055,322.903,1109.914,325.148,1109.914,327.628z"/>
	<path fill="#58595B" d="M1158.078,312.972c3.312,0,6.079,0.868,8.305,2.604v-0.298c0-1.834,0.792-2.752,2.38-2.752
		c1.637,0,2.455,0.794,2.455,2.38c0,0.298-0.042,1.042-0.124,2.232c-0.165,0.992-0.248,1.984-0.248,2.976
		c0,0.596,0.062,1.464,0.187,2.604c0.123,1.142,0.186,2.009,0.186,2.604c0,1.886-0.807,2.827-2.417,2.827
		c-1.564,0-2.369-0.793-2.418-2.381v-2.455c-0.051-1.488-0.906-2.765-2.567-3.831c-1.662-1.066-3.608-1.6-5.841-1.6
		c-2.281,0-4.191,0.583-5.729,1.748c-1.537,1.166-2.306,2.616-2.306,4.353c0,3.175,2.183,5.059,6.547,5.654l4.315,0.595
		c8.432,1.142,12.646,4.639,12.646,10.49c0,3.57-1.359,6.461-4.08,8.667c-2.72,2.206-6.28,3.311-10.682,3.311
		c-4.104,0-7.664-1.166-10.682-3.496c0,0.496,0,0.967,0,1.413c0,1.785-0.844,2.679-2.529,2.679c-1.836,0-2.752-1.018-2.752-3.051
		c0,0.348,0.148-0.941,0.445-3.868c0.1-0.694,0.149-1.389,0.149-2.084c0-1.189-0.101-2.306-0.298-3.348
		c-0.199-1.041-0.297-1.859-0.297-2.455c0-1.735,0.792-2.604,2.38-2.604c1.042,0,1.698,0.249,1.972,0.744
		c0.271,0.496,0.434,1.811,0.483,3.942c0.049,2.134,1.165,3.869,3.349,5.208c2.182,1.339,4.959,2.009,8.332,2.009
		c2.43,0,4.438-0.619,6.025-1.86c1.588-1.238,2.381-2.801,2.381-4.687c0-3.372-2.678-5.331-8.034-5.877
		c-5.109-0.546-9.003-1.55-11.681-3.014c-2.678-1.462-4.018-4.029-4.018-7.7c0-3.471,1.311-6.286,3.931-8.443
		C1150.465,314.05,1153.875,312.972,1158.078,312.972z"/>
	<path fill="#58595B" d="M1194.68,312.972c3.312,0,6.08,0.868,8.305,2.604v-0.298c0-1.834,0.793-2.752,2.381-2.752
		c1.637,0,2.455,0.794,2.455,2.38c0,0.298-0.042,1.042-0.125,2.232c-0.164,0.992-0.247,1.984-0.247,2.976
		c0,0.596,0.062,1.464,0.187,2.604c0.123,1.142,0.186,2.009,0.186,2.604c0,1.886-0.807,2.827-2.418,2.827
		c-1.563,0-2.369-0.793-2.418-2.381v-2.455c-0.051-1.488-0.906-2.765-2.566-3.831c-1.662-1.066-3.609-1.6-5.841-1.6
		c-2.282,0-4.191,0.583-5.729,1.748c-1.538,1.166-2.306,2.616-2.306,4.353c0,3.175,2.182,5.059,6.547,5.654l4.314,0.595
		c8.432,1.142,12.647,4.639,12.647,10.49c0,3.57-1.36,6.461-4.08,8.667s-6.28,3.311-10.682,3.311c-4.104,0-7.665-1.166-10.682-3.496
		c0,0.496,0,0.967,0,1.413c0,1.785-0.845,2.679-2.53,2.679c-1.835,0-2.752-1.018-2.752-3.051c0,0.348,0.148-0.941,0.446-3.868
		c0.099-0.694,0.149-1.389,0.149-2.084c0-1.189-0.101-2.306-0.299-3.348c-0.198-1.041-0.297-1.859-0.297-2.455
		c0-1.735,0.793-2.604,2.381-2.604c1.041,0,1.698,0.249,1.971,0.744c0.272,0.496,0.434,1.811,0.484,3.942
		c0.049,2.134,1.164,3.869,3.348,5.208c2.182,1.339,4.959,2.009,8.332,2.009c2.43,0,4.438-0.619,6.026-1.86
		c1.587-1.238,2.381-2.801,2.381-4.687c0-3.372-2.679-5.331-8.034-5.877c-5.109-0.546-9.003-1.55-11.682-3.014
		c-2.678-1.462-4.017-4.029-4.017-7.7c0-3.471,1.31-6.286,3.931-8.443C1187.066,314.05,1190.478,312.972,1194.68,312.972z"/>
</g>
<path fill="#EA0A8A" d="M44.12,158.989c-6.938,0-12.801-2.462-17.601-7.399c-4.8-4.932-7.2-10.862-7.2-17.8
	c0-6.932,2.4-12.863,7.2-17.801c4.8-4.931,10.663-7.399,17.601-7.399c6.931,0,12.8,2.469,17.6,7.399
	c4.8,4.938,7.2,10.869,7.2,17.801c0,6.938-2.4,12.868-7.2,17.8C56.92,156.527,51.051,158.989,44.12,158.989z M44.12,294.189
	c-6.938,0-12.801-2.469-17.601-7.399c-4.8-4.932-7.2-10.863-7.2-17.801c0-6.931,2.4-12.862,7.2-17.8
	c4.8-4.931,10.663-7.399,17.601-7.399c6.931,0,12.8,2.469,17.6,7.399c4.8,4.938,7.2,10.869,7.2,17.8c0,6.938-2.4,12.869-7.2,17.801
	C56.92,291.721,51.051,294.189,44.12,294.189z"/>
<path fill="#0097C6" d="M209.318,80.59c6.931,0,14.8,1.068,23.6,3.2c1.331-26.132,16.531-39.2,45.6-39.2
	c12.263,0,22.531,3.2,30.801,9.6c8.262,6.4,12.399,14.538,12.399,24.4c0,6.399-2.068,11.868-6.2,16.399
	c-4.137,4.538-9,6.801-14.6,6.801c-4.269,0-8-1.463-11.2-4.4c-3.2-2.932-4.8-6.4-4.8-10.4c0-4.262,2.932-8.662,8.8-13.199
	c-4.269-5.332-9.737-8-16.399-8c-14.138,0-21.338,8.8-21.601,26.399c20.263,13.601,30.4,31.869,30.4,54.8
	c0,18.4-6.956,33.738-20.862,46c-13.906,12.27-31.288,18.4-52.138,18.4c-14.713,0-29.956-3.463-45.731-10.4
	c-4.281-1.862-7.894-2.8-10.831-2.8c-3.744,0-7.088,1.669-10.025,5c-2.943,3.338-4.412,7.269-4.412,11.8
	c0,13.869,14.031,20.801,42.1,20.801h2.406c2.138,0,4.544,0,7.219,0c2.669,0,4.275,0,4.812,0c25.388,0,45.976,2.394,61.75,7.175
	c14.7,4.524,26.325,11.568,34.882,21.138c8.55,9.568,12.831,20.331,12.831,32.293c0,19.4-9,34.75-27,46.051
	c-18,11.293-42.338,16.943-73,16.943c-30.669,0-54.737-5.338-72.2-16c-17.469-10.669-26.2-25.338-26.2-44
	c0-21.6,12.132-36.932,36.4-46c-21.869-8.531-32.8-21.331-32.8-38.4c0-18.662,10.931-31.462,32.8-38.399
	c-6.938-9.331-10.4-20.263-10.4-32.8c0-18.132,7-33.2,21-45.2S188.249,80.59,209.318,80.59z M210.918,262.189
	c-21.338,0-38.138,3.2-50.4,9.601c-12.269,6.399-18.399,15.068-18.399,26c0,10.931,6,19.531,18,25.8
	c12,6.263,28.131,9.399,48.399,9.399c21.332,0,38.2-3.199,50.601-9.6c12.399-6.4,18.6-14.938,18.6-25.6
	c0-11.2-5.868-19.932-17.6-26.2C248.381,265.327,231.98,262.189,210.918,262.189z M210.518,106.989c-11.737,0-21.737,3.469-30,10.4
	c-8.269,6.938-12.8,15.6-13.6,26v2.4c0,11.737,4,21.199,12,28.399s18.4,10.8,31.2,10.8c13.331,0,24.2-3.6,32.6-10.8
	c8.4-7.2,12.601-16.399,12.601-27.6c0-11.463-4.27-20.932-12.801-28.4C233.98,110.728,223.318,106.989,210.518,106.989z"/>
<path fill="#0097C6" d="M395.313,29.452l-1.6,77.938c10.699-10.131,20.462-17.131,29.287-21c8.825-3.862,19.25-5.8,31.287-5.8
	c23,0,41.45,6.537,55.363,19.6c13.906,13.069,20.862,30.269,20.862,51.601v66.8c0,15.737,0.131,24.399,0.399,26
	c1.062,13.337,4.531,20,10.4,20c2.131,0,5.2-0.744,9.2-2.237c1.6-0.375,3.731-0.562,6.399-0.562c9.863,0,14.801,4.537,14.801,13.6
	c0,9.068-6.4,13.6-19.2,13.6c-3.469,0-8.538-0.399-15.2-1.199c-11.2-1.332-20.269-2-27.2-2c-6.938,0-12.269,0.269-16,0.8
	c-11.2,1.6-18.138,2.399-20.8,2.399c-4.8,0-8.8-1.399-12-4.199c-3.2-2.801-4.8-6.332-4.8-10.601c0-3.462,1.399-6.399,4.2-8.8
	c2.8-2.4,6.062-3.6,9.8-3.6c2.931,0,6.399,0.668,10.399,2c2.4,0.8,4.663,1.199,6.801,1.199c8,0,12.131-8.662,12.399-26
	c0-3.199,0.263-9.462,0.8-18.8v-17.2v-21.6c0-27.2-2.681-45.463-8.031-54.8c-7.762-13.862-21.418-20.8-40.956-20.8
	c-21.149,0-36.537,7.199-46.175,21.6c-6.693,9.869-10.175,25.737-10.438,47.6v28.801c0,1.6-0.537,4.269-1.6,8c0,3.469,0,6,0,7.6
	c0,15.2,0.137,24,0.412,26.4c1.369,13.068,5.344,19.6,11.925,19.6c2.194,0,5.281-0.6,9.257-1.8c3.975-1.2,6.918-1.8,8.844-1.8
	c8.774,0,13.162,4.262,13.162,12.774c0,9.619-5.906,14.425-17.719,14.425c-3.763,0-9.406-0.399-16.919-1.199
	c-10.206-1.062-18.931-1.601-26.181-1.601c-4.562,0-10.875,0.4-18.926,1.2c-10.743,1.062-17.594,1.6-20.543,1.6
	c-11.013,0-16.513-4.943-16.513-14.837c0-8.237,5.156-12.362,15.481-12.362c3.524,0,6.105,0.375,7.737,1.118
	c4.612,1.125,7.875,1.682,9.774,1.682c4.344,0,7.263-4.062,8.757-12.2c1.493-8.131,2.375-24.731,2.649-49.8v-71.601
	c0-40-0.8-65.262-2.399-75.8c-1.601-10.531-5.338-15.8-11.2-15.8c-1.869,0-4.669,0.4-8.4,1.2c-3.737,0.8-6.668,1.2-8.8,1.2
	c-9.068,0-13.6-4.263-13.6-12.801c0-3.73,1.6-6.931,4.8-9.6c3.2-2.662,7.062-4,11.6-4c1.332,0,5.863,0.4,13.601,1.2
	c5.062,0.537,10.531,0.8,16.399,0.8c2.4,0,5.731-0.331,10-1c4.263-0.662,7.332-1,9.2-1c6.132,0,9.2,4.419,9.2,13.256V29.452z"/>
<path fill="#2BABE2" d="M759.711,292.59c-21.868,0-35.337-9.463-40.399-28.4c-13.601,20-34.938,30-64,30
	c-21.601,0-38.869-5.337-51.8-16c-12.938-10.662-19.4-24.931-19.4-42.8c0-22.131,9.463-38.4,28.4-48.8
	c7.199-4,13.399-6.601,18.6-7.8c5.2-1.2,15.662-2.731,31.4-4.601c22.399-2.399,37-5.731,43.8-10c6.8-4.263,10.2-12.131,10.2-23.6
	c0-10.932-3.801-19.531-11.4-25.8c-7.6-6.263-18.2-9.4-31.8-9.4c-12,0-23.2,3.338-33.601,10c-4,2.669-6,5.469-6,8.4
	c0,1.068,1.2,2.399,3.601,4c3.731,2.668,5.6,7.199,5.6,13.6c0,5.338-1.938,9.737-5.8,13.2c-3.869,3.469-8.737,5.2-14.6,5.2
	c-6.938,0-12.738-2.4-17.4-7.2c-4.669-4.8-7-10.663-7-17.601c0-14.931,7.4-27.73,22.2-38.399c14.8-10.663,32.731-16,53.8-16
	c48.531,0,72.8,23.287,72.8,69.85v80.632c0,12.774,0.263,20.355,0.8,22.75c1.601,9.312,6.132,13.969,13.601,13.969
	c9.331,0,14-8.476,14-25.426v-19.462c0-8.476,4.068-12.713,12.206-12.713c8.662,0,12.994,6.4,12.994,19.2v2v22.8
	C799.974,279.79,786.374,292.59,759.711,292.59z M715.312,212.989V184.59c-5.844,5.337-12.019,9.068-18.525,11.2
	c-6.513,2.137-18.131,4-34.856,5.6c-30.281,2.938-45.418,14.138-45.418,33.6c0,10.138,3.662,18.138,11,24
	c7.331,5.869,17.262,8.801,29.8,8.801c17.862,0,31.931-4.863,42.2-14.601C709.773,243.458,715.043,230.059,715.312,212.989z"/>
<path fill="#2BABE2" d="M873.709,98.796v10.994c13.862-19.463,32.4-29.2,55.6-29.2c18.663,0,33.801,5.269,45.4,15.8
	c11.6,10.537,17.4,24.068,17.4,40.6c0,11.738-2.938,21.27-8.801,28.601c-5.868,7.337-13.6,11-23.199,11
	c-6.138,0-11.338-1.862-15.601-5.601c-4.269-3.73-6.399-8.262-6.399-13.6c0-4.263,1.6-8.062,4.8-11.4c3.2-3.331,6.931-5,11.2-5
	c0.8,0,2.531,0.4,5.199,1.2c1.601-3.2,2.4-6.131,2.4-8.8c0-7.731-3.4-14.263-10.2-19.6c-6.8-5.332-15.269-8-25.399-8
	c-20.801,0-34.669,9.337-41.601,28c-4.269,11.469-6.399,28.8-6.399,52v26.399c0,17.869,0.131,27.869,0.399,30
	c1.331,15.2,5.463,22.8,12.4,22.8c3.462,0,7.062-0.456,10.8-1.368c2.932-0.688,5.463-1.031,7.6-1.031
	c8.531,0,12.801,4.206,12.801,12.606c0,9.199-5.45,13.793-16.344,13.793h-1.594c-3.988,0-10.038-0.469-18.145-1.399
	c-8.105-0.932-14.149-1.4-18.137-1.4c-10.632,0-19,0.269-25.113,0.8l-22.324,2c-10.9,0-16.344-4.662-16.344-14
	c0-8.262,5.112-12.399,15.337-12.399c2.688,0,4.706,0.138,6.057,0.399l6.056,1.2c2.688,0.538,4.575,0.8,5.65,0.8
	c6.725,0,10.362-6.131,10.9-18.399v-20.4l-1.2-90.8c-0.8-15.731-4.8-23.6-12-23.6c-2.138,0-5.069,0.399-8.8,1.199
	c-3.738,0.801-6.669,1.2-8.801,1.2c-8.8,0-13.199-4.263-13.199-12.8c0-9.331,5.73-14,17.199-14c2.663,0,6.663,0.338,12,1
	c5.332,0.669,9.332,1,12,1c2.132,0,5.601-0.331,10.4-1c2.131-0.662,4.662-1,7.6-1C870.24,87.39,873.709,91.196,873.709,98.796z"/>
<path fill="#2BABE2" d="M1181.708,292.59c-21.868,0-35.337-9.463-40.399-28.4c-13.601,20-34.938,30-64,30
	c-21.601,0-38.869-5.337-51.8-16c-12.938-10.662-19.4-24.931-19.4-42.8c0-22.131,9.463-38.4,28.4-48.8
	c7.199-4,13.399-6.601,18.6-7.8c5.2-1.2,15.662-2.731,31.4-4.601c22.399-2.399,37-5.731,43.8-10c6.8-4.263,10.2-12.131,10.2-23.6
	c0-10.932-3.801-19.531-11.4-25.8c-7.6-6.263-18.2-9.4-31.8-9.4c-12,0-23.2,3.338-33.601,10c-4,2.669-6,5.469-6,8.4
	c0,1.068,1.2,2.399,3.601,4c3.731,2.668,5.6,7.199,5.6,13.6c0,5.338-1.938,9.737-5.8,13.2c-3.869,3.469-8.737,5.2-14.6,5.2
	c-6.938,0-12.738-2.4-17.4-7.2c-4.669-4.8-7-10.663-7-17.601c0-14.931,7.4-27.73,22.2-38.399c14.8-10.663,32.731-16,53.8-16
	c48.531,0,72.8,23.287,72.8,69.85v80.632c0,12.774,0.263,20.355,0.8,22.75c1.601,9.312,6.132,13.969,13.601,13.969
	c9.331,0,14-8.476,14-25.426v-19.462c0-8.476,4.068-12.713,12.206-12.713c8.662,0,12.994,6.4,12.994,19.2v2v22.8
	C1221.971,279.79,1208.371,292.59,1181.708,292.59z M1137.309,212.989V184.59c-5.844,5.337-12.019,9.068-18.525,11.2
	c-6.513,2.137-18.131,4-34.856,5.6c-30.281,2.938-45.418,14.138-45.418,33.6c0,10.138,3.662,18.138,11,24
	c7.331,5.869,17.262,8.801,29.8,8.801c17.862,0,31.931-4.863,42.2-14.601C1131.771,243.458,1137.04,230.059,1137.309,212.989z"/>
<path fill="#2BABE2" d="M1330.106,80.59c6.931,0,14.8,1.068,23.6,3.2c1.331-26.132,16.531-39.2,45.6-39.2
	c12.263,0,22.531,3.2,30.801,9.6c8.262,6.4,12.399,14.538,12.399,24.4c0,6.399-2.068,11.868-6.2,16.399
	c-4.137,4.538-9,6.801-14.6,6.801c-4.269,0-8-1.463-11.2-4.4c-3.2-2.932-4.8-6.4-4.8-10.4c0-4.262,2.932-8.662,8.8-13.199
	c-4.269-5.332-9.737-8-16.399-8c-14.138,0-21.338,8.8-21.601,26.399c20.263,13.601,30.4,31.869,30.4,54.8
	c0,18.4-6.956,33.738-20.862,46c-13.906,12.27-31.288,18.4-52.138,18.4c-14.713,0-29.956-3.463-45.731-10.4
	c-4.281-1.862-7.894-2.8-10.831-2.8c-3.744,0-7.088,1.669-10.025,5c-2.943,3.338-4.412,7.269-4.412,11.8
	c0,13.869,14.031,20.801,42.1,20.801h2.406c2.138,0,4.544,0,7.219,0c2.669,0,4.275,0,4.812,0c25.388,0,45.976,2.394,61.75,7.175
	c14.7,4.524,26.325,11.568,34.882,21.138c8.55,9.568,12.831,20.331,12.831,32.293c0,19.4-9,34.75-27,46.051
	c-18,11.293-42.338,16.943-73,16.943c-30.669,0-54.737-5.338-72.2-16c-17.469-10.669-26.2-25.338-26.2-44
	c0-21.6,12.132-36.932,36.4-46c-21.869-8.531-32.8-21.331-32.8-38.4c0-18.662,10.931-31.462,32.8-38.399
	c-6.938-9.331-10.4-20.263-10.4-32.8c0-18.132,7-33.2,21-45.2S1309.037,80.59,1330.106,80.59z M1331.706,262.189
	c-21.338,0-38.138,3.2-50.4,9.601c-12.269,6.399-18.399,15.068-18.399,26c0,10.931,6,19.531,18,25.8
	c12,6.263,28.131,9.399,48.399,9.399c21.332,0,38.2-3.199,50.601-9.6c12.399-6.4,18.6-14.938,18.6-25.6
	c0-11.2-5.868-19.932-17.6-26.2C1369.169,265.327,1352.769,262.189,1331.706,262.189z M1331.306,106.989
	c-11.737,0-21.737,3.469-30,10.4c-8.269,6.938-12.8,15.6-13.6,26v2.4c0,11.737,4,21.199,12,28.399s18.4,10.8,31.2,10.8
	c13.331,0,24.2-3.6,32.6-10.8c8.4-7.2,12.601-16.399,12.601-27.6c0-11.463-4.27-20.932-12.801-28.4
	C1354.769,110.728,1344.106,106.989,1331.306,106.989z"/>
<path fill="#2BABE2" d="M1628.106,169.79c0,10.137-0.669,16.337-2,18.6c-1.338,2.269-5.2,3.4-11.601,3.4h-127.199
	c-3.469,0-5.738,0.469-6.801,1.399c-1.068,0.938-1.6,2.469-1.6,4.601c0,20,6,36.668,18,50c12,13.337,26.932,20,44.8,20
	c11.731,0,22.463-3.2,32.2-9.601c9.731-6.399,16.062-14.531,19-24.399l3.6-11.601c1.863-6.399,6.263-9.6,13.2-9.6
	c9.862,0,14.8,5.068,14.8,15.2c0,17.337-8.8,32.737-26.399,46.199c-17.601,13.463-37.601,20.2-60,20.2c-28,0-50.269-9.399-66.8-28.2
	c-16.538-18.8-24.801-44.062-24.801-75.8c0-32.531,8.801-58.931,26.4-79.2c17.6-20.262,40.531-30.399,68.8-30.399
	c25.062,0,45.731,8.399,62,25.2C1619.969,122.59,1628.106,143.927,1628.106,169.79z M1482.906,159.39c0,3.737,2.932,5.6,8.8,5.6
	h95.601c5.6,0,8.399-1.862,8.399-5.6c0-14.131-5.337-26.4-16-36.8c-10.669-10.4-23.2-15.601-37.6-15.601
	c-14.938,0-28.538,5.4-40.8,16.2C1489.037,133.989,1482.906,146.059,1482.906,159.39z"/>
</svg>
